<?xml version="1.0" standalone="no"?>
<!DOCTYPE svg PUBLIC "-//W3C//DTD SVG 1.1//EN" "http://www.w3.org/Graphics/SVG/1.1/DTD/svg11.dtd" >
<svg>
<metadata>
Created by FontForge 20090914 at Fri Feb 24 14:50:54 2012
 By root
Typeface &#194;&#169; (www.kevinandamanda.com). &#60;2007&#62;. All Rights Reserved
</metadata>
<defs>
<font id="PeaMissywithaMarker" horiz-adv-x="1456" >
  <font-face 
    font-family="Pea Missy with a Marker"
    font-weight="400"
    font-stretch="normal"
    units-per-em="2048"
    panose-1="2 0 0 0 0 0 0 0 0 0"
    ascent="1638"
    descent="-410"
    x-height="1254"
    cap-height="1923"
    bbox="-554 -963 2112 2037"
    underline-thickness="150"
    underline-position="-142"
    unicode-range="U+0020-U+201D"
  />
<missing-glyph horiz-adv-x="40" 
 />
    <glyph glyph-name=".notdef" horiz-adv-x="40" 
 />
    <glyph glyph-name=".null" horiz-adv-x="40" 
 />
    <glyph glyph-name="nonmarkingreturn" horiz-adv-x="40" 
 />
    <glyph glyph-name="space" unicode=" " horiz-adv-x="1199" 
 />
    <glyph glyph-name="space" unicode="&#xa0;" horiz-adv-x="1199" 
 />
    <glyph glyph-name="exclam" unicode="!" horiz-adv-x="544" 
d="M168 1698h120q71 0 96 -72l-12 -120q108 -797 108 -1116q-99 -67 -168 -72h-84q-105 0 -144 144l12 312v12q0 170 -96 816v24q28 72 168 72zM360 162q110 0 144 -72v-24q0 -102 -240 -132h-24q-120 32 -120 120v24q54 84 240 84z" />
    <glyph glyph-name="quotedbl" unicode="&#x22;" horiz-adv-x="808" 
d="M552 1317h72q120 0 120 -384q17 0 24 -132q-161 -108 -276 -108q-108 54 -108 108h-13l13 492zM360 801q-102 -78 -216 -108q-88 0 -144 84v120l12 132l-12 12v12l12 60l-12 144q0 84 264 84h24q53 0 96 -48l-13 -492h-11z" />
    <glyph glyph-name="numbersign" unicode="#" horiz-adv-x="1168" 
d="M672 1350q204 0 204 -108v-144q0 -44 180 -60l24 -36v-36q0 -28 -216 -108v-72l24 -24h120q93 0 120 -60v-36q0 -47 -168 -96h-96l-12 -60v-48l12 -72q0 -87 -228 -132q-72 48 -108 48q0 -60 -192 -96h-12q-63 0 -120 72v120l12 84q-168 63 -168 132t180 108l12 12v60
h-24v12l-84 -24q-103 29 -132 96v48q0 42 264 84q20 276 120 276h36l168 -24v12q31 72 84 72zM528 810v-24l24 -24h12l12 36l-12 36h-12zM516 510h24v24z" />
    <glyph glyph-name="dollar" unicode="$" horiz-adv-x="1120" 
d="M420 1806q180 0 180 -168h12q28 156 96 156q120 -27 120 -84l-24 -96q0 -25 192 -132q84 -145 84 -192v-24q0 -44 -144 -84h-36q-39 0 -120 60q-36 -42 -36 -360v-48q156 -137 156 -204q0 -76 -168 -288v-24l12 -228q0 -72 -96 -84h-12l-144 48l-156 -60
q-120 39 -120 132q0 117 -120 216l-12 72q9 168 36 168h24l84 -24l24 36v180q-228 177 -228 228l-24 108q0 233 288 432l60 240z" />
    <glyph glyph-name="percent" unicode="%" horiz-adv-x="1300" 
d="M864 1566h72q65 0 84 -48v-12l-204 -612l-24 -96v-24h12q69 48 216 48q240 -29 240 -192v-12q0 -268 -372 -348h-12q-67 15 -168 108q-33 0 -48 -276q-91 -60 -240 -96q-82 34 -108 84v24l192 768h-36q-159 -108 -264 -108q-146 0 -204 216v60q0 195 192 264q0 41 132 72
h84q138 0 204 -168l12 -12l144 324q8 36 96 36zM300 1134v-36h12v36h-12z" />
    <glyph glyph-name="ampersand" unicode="&#x26;" horiz-adv-x="868" 
d="M444 1722q176 0 216 -48l-12 -204v-12q0 -76 144 -96l36 -48v-60q0 -94 -372 -192h-12l-48 12q-39 0 -72 -108q12 -48 48 -48q164 108 336 108q96 -32 96 -60v-24l-264 -240l12 -12q144 -16 144 -72l-24 -144v-36q0 -272 48 -384q0 -63 -228 -120q-120 21 -120 120
l-24 312v12l-24 36q-47 -24 -132 -24q-156 39 -156 132q0 26 156 180q-192 125 -192 204q0 130 324 420v12l-24 300q0 72 144 84z" />
    <glyph glyph-name="quotesingle" unicode="'" horiz-adv-x="412" 
d="M320 801q-102 -78 -216 -108q-88 0 -144 84v120l12 132l-12 12v12l12 60l-12 144q0 84 264 84h24q53 0 96 -48l-13 -492h-11z" />
    <glyph glyph-name="parenleft" unicode="(" horiz-adv-x="748" 
d="M444 1530h72q156 0 156 -108q-336 -333 -336 -612q0 -297 264 -492q82 -21 108 -84v-48q0 -66 -240 -120q-171 0 -396 396q-72 225 -72 324q0 266 336 708q46 36 108 36z" />
    <glyph glyph-name="parenright" unicode=")" horiz-adv-x="712" 
d="M96 1506q367 0 540 -396q36 -93 36 -168v-144q0 -440 -300 -744l-180 -60q-132 24 -132 120q0 49 156 192q132 290 132 468v84l12 48q0 306 -312 444l-48 60v12q0 84 96 84z" />
    <glyph glyph-name="asterisk" unicode="*" horiz-adv-x="1180" 
d="M396 1254h12q146 0 204 -120q118 120 180 120h48q93 0 120 -60l-96 -216v-24l120 12q156 0 156 -84q-25 -74 -228 -156l96 -168q0 -96 -180 -156q-67 0 -168 144h-24q-79 -240 -180 -240q-12 -36 -72 -36q-86 0 -132 72v36q0 31 156 288v24l-12 12h-12l-228 -12
q-99 0 -156 108q0 64 180 84l12 -12h12q204 16 204 48q-97 152 -108 288q51 48 96 48z" />
    <glyph glyph-name="plus" unicode="+" horiz-adv-x="1504" 
d="M816 1566q92 0 156 -60l-12 -240v-252q0 -72 72 -72l252 12q180 -16 180 -72v-36q0 -66 -252 -120l-216 24l-12 -12v-60q-24 -420 -96 -420q-156 -60 -216 -60q-108 45 -108 108l36 276v120l-36 36l-192 -60l-120 12l-120 -12q-122 59 -132 96v60q0 108 600 108l12 12v12
l-24 516q0 84 228 84z" />
    <glyph glyph-name="comma" unicode="," horiz-adv-x="568" 
d="M276 417h12q166 0 216 -120l24 -108q0 -175 -240 -372l-132 -48h-36q-120 27 -120 108l180 192l24 96l-96 156v12q41 84 168 84z" />
    <glyph glyph-name="hyphen" unicode="-" 
d="M1260 1134q156 -28 156 -72v-12q0 -99 -228 -144l-216 12q-605 -12 -768 -48h-60q-144 33 -144 132q0 85 288 120q72 -9 72 -24q137 24 468 24h240z" />
    <glyph glyph-name="hyphen" unicode="&#xad;" 
d="M1260 1134q156 -28 156 -72v-12q0 -99 -228 -144l-216 12q-605 -12 -768 -48h-60q-144 33 -144 132q0 85 288 120q72 -9 72 -24q137 24 468 24h240z" />
    <glyph glyph-name="period" unicode="." horiz-adv-x="460" 
d="M240 297h12q168 -30 168 -156q0 -112 -264 -168h-36q-67 0 -120 180v12q0 132 240 132z" />
    <glyph glyph-name="slash" unicode="/" horiz-adv-x="1180" 
d="M876 1617h36q228 -39 228 -108q0 -61 -504 -924q-264 -489 -264 -552q-44 -36 -84 -36h-144q-95 0 -144 84v24l384 660l312 576q81 276 180 276z" />
    <glyph glyph-name="zero" unicode="0" horiz-adv-x="1588" 
d="M660 1686q369 -56 552 -228q286 -332 336 -636q-58 -504 -120 -504q-28 -90 -276 -264q-126 -72 -204 -72q-764 0 -936 708l-12 144q0 423 348 768q134 57 312 84zM348 774q0 -292 276 -564l96 -36q180 0 420 312q84 208 84 372q-59 342 -324 600l-72 24
q-148 0 -312 -192q-168 -285 -168 -516z" />
    <glyph glyph-name="one" unicode="1" horiz-adv-x="436" 
d="M180 1650h96q65 0 84 -48v-444l-12 -144l12 -144v-180l-12 -108q24 -561 48 -672q0 -84 -300 -84q-84 0 -84 336v804l-12 60l12 72v456q0 96 168 96z" />
    <glyph glyph-name="two" unicode="2" horiz-adv-x="1684" 
d="M768 1614h96q360 -61 360 -264q-51 -403 -456 -1020l-12 -48l12 -12l360 12h132q384 -28 384 -108v-12q0 -84 -84 -84h-48l-288 36l-72 -12l-108 12q-168 -36 -432 -48q-312 0 -312 96v12q0 29 252 396q372 631 372 864q-18 48 -36 48h-24q-374 0 -540 -408
q-65 -48 -264 -48q-43 23 -60 72q108 273 396 432q244 84 372 84z" />
    <glyph glyph-name="three" unicode="3" 
d="M672 1578h72q372 -58 372 -180q0 -150 -192 -360l348 -156q144 -129 144 -240v-72q0 -173 -252 -420q-284 -276 -528 -276h-36q-276 0 -276 120q10 72 72 72l60 -12q200 0 396 192q264 246 264 456v60q-55 108 -276 108q-100 0 -468 -120q-288 15 -288 72v48
q0 59 372 168q179 155 312 336l-24 36q-118 0 -468 -228h-156q-93 0 -120 60q0 101 348 240q6 35 324 96z" />
    <glyph glyph-name="four" unicode="4" horiz-adv-x="1540" 
d="M756 1650q223 0 276 -72l-12 -264v-72l-12 -36l12 -60v-444l12 -60l180 12q288 -64 288 -120q0 -62 -36 -72h-204l-132 12q-108 0 -108 -84l24 -480q-44 -36 -84 -36q-276 0 -276 96l-12 144v300l-36 36q-636 0 -636 96v24q0 38 192 276q0 29 192 300q286 504 360 504h12
zM456 630l60 -12h84q62 0 72 36v252l-12 12v12q-36 0 -204 -276v-24z" />
    <glyph glyph-name="five" unicode="5" horiz-adv-x="1336" 
d="M804 1638q252 -39 252 -96v-12q0 -72 -600 -156q-84 -215 -84 -444h24q261 84 432 84q468 -63 468 -276v-84q-48 -220 -360 -516q-217 -144 -264 -144l-108 -12h-96q-108 0 -108 96v36q0 34 204 84q274 217 396 480l24 84q-23 84 -84 84q-212 0 -432 -192
q-96 -192 -168 -192h-36q-252 0 -252 144v132l-12 120q68 660 168 660q219 0 636 120z" />
    <glyph glyph-name="six" unicode="6" horiz-adv-x="1312" 
d="M576 1650h24q240 -72 240 -132l-156 -156q-312 -415 -312 -588l12 -12h12q300 36 360 72q449 -36 492 -144l24 -72v-12q0 -152 -228 -360q-46 0 -180 -108q-84 0 -180 -60h-12q-458 0 -588 240q-84 199 -84 372q0 275 336 756q170 192 192 192zM360 486q69 -240 180 -240
q159 33 348 216q84 124 84 156v12q0 24 -36 24q-576 -81 -576 -168z" />
    <glyph glyph-name="seven" unicode="7" horiz-adv-x="1516" 
d="M1236 1626q240 -72 240 -120v-36q-252 -944 -252 -1236v-120q0 -132 -84 -132q-300 38 -300 120v12q108 753 228 1260v12l-12 12h-84q-302 0 -672 -132q-300 15 -300 72v48q61 140 780 204v-12q80 24 456 48z" />
    <glyph glyph-name="eight" unicode="8" horiz-adv-x="1360" 
d="M372 1602l60 -12l360 12q384 -85 384 -264q0 -211 -288 -384v-12l48 -24l12 12q268 0 372 -288v-48q-97 -287 -384 -420q-252 -180 -492 -180q-328 0 -408 216l-36 144q0 306 276 552l-156 96q-84 93 -84 168q0 189 264 396l72 24v12zM384 1146l36 -48q282 0 408 276v24
l-36 24q-308 0 -396 -240zM744 738l-60 12q-261 0 -336 -420v-48q15 -90 48 -96h12q189 0 564 360l48 132q-19 84 -60 84z" />
    <glyph glyph-name="nine" unicode="9" horiz-adv-x="1372" 
d="M804 1734q209 0 432 -216q96 -83 96 -132q-36 -159 -60 -504l36 -876q-28 -72 -84 -72q-276 57 -276 108l-12 12v12l24 216l-24 576l-12 12h-24q-242 -240 -420 -276q-432 60 -432 180q-48 80 -48 192q0 479 636 732q79 36 168 36zM336 942l36 -96q156 58 528 528
q48 64 48 108l-36 36q-206 -20 -456 -252q-120 -205 -120 -324z" />
    <glyph glyph-name="colon" unicode=":" horiz-adv-x="496" 
d="M288 897q120 0 120 -180v-24q-52 -144 -204 -144h-12q-192 19 -192 168v12q0 141 276 168h12zM348 333q57 0 108 -96q0 -164 -276 -216q-144 55 -144 156v12q0 86 156 120q0 24 156 24z" />
    <glyph glyph-name="semicolon" unicode=";" horiz-adv-x="496" 
d="M192 837h120q105 0 120 -156q-105 -132 -228 -132q-180 57 -180 168v36q0 52 168 84zM276 237h12q140 0 168 -240q0 -197 -240 -384l-72 -24q-144 0 -144 120v24q156 132 156 216v48l-72 156q0 60 192 84z" />
    <glyph glyph-name="semicolon" unicode="&#x37e;" horiz-adv-x="496" 
d="M192 837h120q105 0 120 -156q-105 -132 -228 -132q-180 57 -180 168v36q0 52 168 84zM276 237h12q140 0 168 -240q0 -197 -240 -384l-72 -24q-144 0 -144 120v24q156 132 156 216v48l-72 156q0 60 192 84z" />
    <glyph glyph-name="less" unicode="&#x3c;" horiz-adv-x="880" 
d="M600 1101q132 -22 132 -60v-12q0 -60 -312 -444v-12q67 -75 384 -156l36 -72q0 -84 -252 -144q-564 191 -564 252l-24 24v48q254 270 396 528q39 32 204 48z" />
    <glyph glyph-name="equal" unicode="=" horiz-adv-x="1372" 
d="M996 1050q264 0 264 -132v-36q-42 -72 -108 -72q-383 24 -432 48q-203 -24 -588 -24q-48 0 -120 96v60q0 33 120 48h120l180 -12l84 12l60 -12q156 24 420 24zM144 642q131 -24 408 -24h204l492 12q77 -31 84 -60v-48q-93 -108 -252 -108l-120 24l-840 -36
q-102 40 -120 96v24q0 81 144 120z" />
    <glyph glyph-name="greater" unicode="&#x3e;" horiz-adv-x="892" 
d="M192 1101q168 0 348 -216q196 -168 300 -216l12 -48q-12 -67 -372 -288q-123 -131 -336 -204q-100 0 -132 120q64 107 276 204l168 156q-267 267 -420 336l-36 48v36q36 72 192 72z" />
    <glyph glyph-name="question" unicode="?" horiz-adv-x="1108" 
d="M576 1569q348 0 480 -276l12 -36q0 -221 -396 -468v-24h-12l60 -348v-36q0 -48 -264 -96q-120 0 -144 480l-12 60q0 49 228 132q240 183 240 324q0 99 -180 120h-12q-228 -37 -228 -216q0 -52 -204 -108q-144 50 -144 156q143 336 576 336zM600 201h60q93 0 120 -60v-12
q0 -97 -240 -144q-132 41 -132 132q0 72 192 84z" />
    <glyph glyph-name="at" unicode="@" horiz-adv-x="1156" 
d="M636 1422q323 0 396 -144l60 -156v-288q0 -115 -120 -216q144 -22 144 -48v-48q-273 -384 -408 -384q-108 -36 -216 -36q-423 0 -492 576v72q0 269 264 540q128 88 372 132zM576 1230q156 -51 156 -156l12 -12h48l24 24v12q0 127 -180 168q-60 -15 -60 -36zM480 942
l-24 -144h12q24 0 60 108l-12 36h-36zM696 642q-42 -92 -192 -132l-108 -24v-48q91 -144 180 -144h24q100 69 204 276v12q0 36 -108 60z" />
    <glyph glyph-name="A" unicode="A" horiz-adv-x="1420" 
d="M636 1959q168 0 168 -96q0 -129 300 -960q28 -144 96 -144q132 0 132 -120l-108 -72q0 -64 156 -468q0 -94 -252 -132q-106 0 -168 264q-21 14 -108 300l-36 12q-360 -29 -360 -84q-89 -504 -120 -504l-228 -24q-108 27 -108 60v72l96 384l-72 108q0 22 108 108
q84 634 204 1116v72q65 108 300 108zM600 1251q-22 -22 -84 -528l24 -24q240 7 240 48q-123 415 -180 504z" />
    <glyph glyph-name="B" unicode="B" horiz-adv-x="1528" 
d="M516 1947q271 0 624 -180q121 -112 132 -252q0 -202 -276 -468v-24q480 -70 480 -264l12 -96q0 -177 -288 -396q-364 -252 -660 -252q-115 -45 -264 -60q-156 0 -156 348q-48 1255 -120 1560q0 47 396 60q0 22 120 24zM396 1683q48 -401 48 -684l36 -36q317 197 432 516
v96q-72 192 -324 192q-192 -40 -192 -84zM468 651v-12q0 -445 60 -468h24q105 0 420 192q168 207 168 300v60q0 120 -216 120h-36q-209 0 -420 -192z" />
    <glyph glyph-name="C" unicode="C" horiz-adv-x="1384" 
d="M576 1911h36q324 -47 324 -120q108 -147 108 -228v-12q-5 -25 -60 -48q-276 63 -276 96l-36 24h-12q-312 -403 -312 -948q0 -143 84 -432l120 -96h12q141 0 252 336q33 26 120 300q20 0 48 180q33 48 84 48q276 -33 276 -96v-24l-192 -468q-130 -372 -252 -372
q-20 -28 -168 -72l-60 12l-96 -24q-244 36 -360 144q-216 246 -216 588q0 611 396 1116q96 96 180 96z" />
    <glyph glyph-name="D" unicode="D" horiz-adv-x="1420" 
d="M312 1899q803 0 1032 -564l36 -180q0 -362 -348 -732l-792 -504l-84 -12q-108 23 -108 96l48 96q-96 804 -96 1740q0 45 312 60zM348 1635v-36q0 -570 84 -1308h36q370 202 480 480q96 259 96 396q0 324 -372 504q-104 48 -264 48q-60 -17 -60 -84z" />
    <glyph glyph-name="E" unicode="E" 
d="M480 1995h60l576 -24l72 24h36q171 0 192 -120q0 -46 -216 -84l-612 24q-216 0 -216 -96l-12 -132v-156q0 -336 60 -336h12q111 0 732 96h48q132 -18 132 -60q0 -144 -444 -144l-492 -108l-12 -12q54 -636 96 -636h12q139 0 768 84h72q72 -7 72 -36v-36q0 -48 -252 -120
l-120 12q-112 -36 -840 -132q-132 0 -132 624q-48 424 -72 912l12 204v108q0 144 468 144z" />
    <glyph glyph-name="F" unicode="F" horiz-adv-x="1372" 
d="M1092 1959q240 0 240 -120q0 -29 -204 -84l-72 12q-696 0 -696 -60v-576l24 -24l600 60h48q240 0 240 -84v-24q0 -51 -192 -84h-144q-564 -27 -564 -120l36 -792q-48 -36 -240 -84q-132 0 -132 216v132l-24 768v660l-12 108q35 84 108 84l372 -24h48q360 0 564 36z" />
    <glyph glyph-name="G" unicode="G" horiz-adv-x="1504" 
d="M612 1911h264q240 0 336 -276l12 -84q0 -132 -204 -132q-127 0 -156 228q-27 56 -84 84q-212 0 -384 -444l-48 -300q0 -423 204 -648q137 -96 204 -96q131 58 216 240q113 278 144 420l-12 12h-120q-143 0 -276 -36q-156 20 -156 108q29 96 204 96h120l432 24
q156 -12 156 -84q-67 -125 -168 -516q-44 -30 -132 -216q-218 -228 -492 -228h-24q-184 16 -408 168q-240 302 -240 612q0 530 180 744q62 177 336 300z" />
    <glyph glyph-name="H" unicode="H" horiz-adv-x="1528" 
d="M120 1995h96q204 0 204 -120v-144l-24 -228v-588l24 -24h132q516 26 516 84l-12 12v84l-96 768v48q0 96 132 96q228 0 228 -180q0 -146 96 -840l24 -48l-12 -48l24 -228l-12 -36l48 -288q0 -87 -276 -120q-96 0 -96 108q0 380 -60 480q-636 -66 -636 -120v-144l60 -408
q-57 -66 -276 -96q-96 0 -96 168l-36 360v84l-72 84v48q60 62 60 108v156l-12 84l12 108l12 720q23 55 48 60z" />
    <glyph glyph-name="I" unicode="I" horiz-adv-x="544" 
d="M216 1923q168 -20 168 -72q48 -718 48 -1092l72 -552q-31 -48 -264 -96q-120 0 -120 216q-48 601 -48 1020l-72 504q0 65 216 72z" />
    <glyph glyph-name="J" unicode="J" horiz-adv-x="1276" 
d="M852 1911h156q156 -34 156 -132v-60l72 -744v-72q0 -479 -336 -756q-236 -108 -396 -108h-36q-165 0 -288 312q-180 314 -180 444q0 48 288 96q96 0 96 -192q180 -468 288 -468q51 0 144 216q72 183 72 396l-12 72l12 12q-36 516 -96 900q24 75 60 84z" />
    <glyph glyph-name="K" unicode="K" horiz-adv-x="1576" 
d="M72 1923q219 0 300 -72l-24 -480l12 -324h36q427 463 816 840l60 12q264 0 264 -108q-4 -32 -312 -264q-192 -248 -492 -516l-60 -84v-36q167 -183 504 -420q0 -20 300 -276v-60q0 -54 -264 -84h-36q-479 493 -696 600q0 21 -60 24h-12v-12l36 -444v-96q0 -57 -264 -96
q-120 0 -120 312q0 264 -48 312l12 120l-24 684v408q23 44 72 60z" />
    <glyph glyph-name="L" unicode="L" horiz-adv-x="1360" 
d="M84 1911h108q161 0 180 -96v-96l156 -1512l36 -36h12q130 0 576 72q168 -20 168 -72v-24q0 -88 -780 -144q0 -28 -264 -36q-118 0 -144 648l-132 1260q44 36 84 36z" />
    <glyph glyph-name="M" unicode="M" horiz-adv-x="2152" 
d="M156 1959h36q240 -24 240 -96q98 0 120 -156l492 -1008l12 -12l72 -108h24l384 1212q0 142 60 156h84q240 0 240 -132q0 -259 96 -840l-12 -84l24 -108l-12 -12v-12q48 -487 96 -624q0 -84 -264 -84q-108 0 -108 204q-48 240 -84 804h-24l-60 -180q-36 0 -36 -156
q-47 0 -132 -396q-63 -205 -120 -228l-228 -24q-61 0 -264 432q-36 32 -312 624h-24l-12 -48l72 -936q-114 -60 -240 -60q-112 0 -120 132l12 60l-36 300h12q-87 1164 -120 1164q-21 0 -24 60q31 156 156 156z" />
    <glyph glyph-name="N" unicode="N" horiz-adv-x="1696" 
d="M1200 2037h72q204 0 204 -420l108 -852q36 -432 72 -612q0 -75 -252 -144q-109 0 -276 276q-442 497 -552 720l-132 180h-24l12 -120v-144l84 -804q-92 -84 -264 -84q-108 0 -108 204q-84 783 -84 1416l-60 144q0 81 264 96h12q127 0 228 -228l348 -480
q288 -459 372 -492l12 12v12l-132 1056l-24 216q50 48 120 48z" />
    <glyph glyph-name="O" unicode="O" horiz-adv-x="1336" 
d="M468 1929l120 -12l144 12q162 0 288 -264q216 -295 216 -468q29 0 60 -228q-36 -468 -132 -696q-135 -324 -624 -324q-227 44 -396 264q-144 239 -144 540v60q0 457 288 972q95 144 180 144zM600 1677q-216 -413 -240 -780v-96q0 -495 324 -648l12 -12h12q211 80 252 696
v24q0 389 -168 612q-40 93 -156 204h-36z" />
    <glyph glyph-name="P" unicode="P" 
d="M660 2001q576 0 744 -300l12 -60v-72q-69 -348 -168 -348q-144 -172 -624 -396q-156 -68 -156 -96q60 -568 108 -660q0 -90 -276 -132q-132 0 -132 384q-72 375 -156 1368l-12 156q38 48 144 48q241 108 516 108zM372 1629q39 -660 84 -660q624 284 624 648
q0 216 -312 216h-144q-240 -36 -240 -120z" />
    <glyph glyph-name="Q" unicode="Q" horiz-adv-x="1516" 
d="M660 1941q139 -36 300 -144q357 -304 408 -648l36 -288v-60q0 -151 -108 -360q90 -256 180 -396v-12q0 -84 -276 -120q-87 0 -156 228l-48 24q-168 -72 -408 -96q-308 0 -492 336q-96 257 -96 420q0 467 324 972q118 144 336 144zM360 885v-96q0 -338 264 -528l48 -12
q252 77 252 192q-136 360 -324 708v36q0 36 168 48q204 -43 204 -120q76 -144 96 -144l12 12v96q0 131 -264 528q-92 96 -144 96h-12q-300 -420 -300 -816z" />
    <glyph glyph-name="R" unicode="R" horiz-adv-x="1528" 
d="M84 1893l264 -24l180 24h60q491 0 684 -252l24 -120q-11 -119 -120 -228q-105 -225 -408 -348l-108 -84v-12q200 -175 384 -288q297 -265 444 -348v-36q-54 -96 -288 -96q-25 0 -528 444l-132 84h-24q-24 0 -24 -36l60 -480q0 -69 -264 -108q-108 0 -108 216
q-144 1348 -180 1428l12 144l-12 60q17 60 84 60zM360 1629q24 -283 84 -612h24q281 87 468 408l36 144v24q0 144 -252 144h-96q-192 0 -264 -108z" />
    <glyph glyph-name="S" unicode="S" horiz-adv-x="1204" 
d="M684 1893q408 0 408 -432q0 -76 -216 -108q-104 0 -120 216q0 105 -168 144h-48q-138 0 -180 -216v-48q0 -405 528 -660q28 -45 192 -144q84 -158 84 -312q-29 -180 -144 -288q-209 -180 -396 -180h-24q-337 0 -600 384v36q101 120 240 120h72q192 -312 420 -312h12
q68 0 84 192v48q0 223 -300 348q-356 192 -480 528l-36 168v48q64 336 192 336q133 120 456 120l12 12h12z" />
    <glyph glyph-name="T" unicode="T" horiz-adv-x="1624" 
d="M1356 1953q228 -24 228 -84v-24q0 -67 -324 -84l-60 12q-300 -18 -300 -72v-216q24 -445 120 -1272q-93 -132 -276 -132q-48 0 -96 72v24q-84 1129 -84 1428l12 96l-24 24l-396 -48q-156 33 -156 132q0 84 516 84z" />
    <glyph glyph-name="U" unicode="U" horiz-adv-x="1396" 
d="M180 1881q228 -9 228 -84l-60 -600l12 -12v-12l-12 -72q39 -828 252 -828q90 0 276 684q156 586 156 720v48l-12 72q35 84 108 84h24q204 -8 204 -60v-48l-108 -516q-162 -778 -348 -1056q-183 -144 -324 -144h-72q-396 109 -396 324q-48 0 -108 636l12 72l-12 108
q48 648 72 648z" />
    <glyph glyph-name="V" unicode="V" horiz-adv-x="1396" 
d="M1140 1953q216 -17 216 -72l-144 -360l12 -96l-156 -408q-132 -557 -276 -948q-202 -72 -264 -72q-121 0 -192 384q-96 256 -168 660q-168 655 -168 804v12q0 36 204 48q156 0 156 -144q72 -410 192 -900q0 -68 60 -204h36q312 896 312 1044q0 252 180 252z" />
    <glyph glyph-name="W" unicode="W" horiz-adv-x="2056" 
d="M1764 1929q252 0 252 -72v-24l-264 -1188q-78 -600 -168 -600l-204 -12q-119 0 -264 432q-90 149 -156 408h-48q-120 -476 -240 -828l-216 -24q-154 0 -180 276q-120 246 -240 1344l-36 168q0 60 120 72q264 0 264 -96l-12 -84q120 -908 144 -948h12q24 29 132 456
q108 209 108 348q67 36 132 36q252 0 252 -156q152 -792 252 -792q48 69 240 1080q0 204 96 204h24z" />
    <glyph glyph-name="X" unicode="X" 
d="M120 1905q300 0 300 -156q147 -171 276 -468q53 0 312 540q0 48 60 84h48q252 -32 252 -96v-60q-396 -623 -456 -864v-12q0 -101 396 -732q76 -76 108 -144q0 -96 -276 -96q-88 0 -420 624h-24q-83 -82 -216 -420q-55 -36 -252 -36q-108 20 -108 108l396 720v24
q-193 517 -516 876v36q0 38 120 72z" />
    <glyph glyph-name="Y" unicode="Y" horiz-adv-x="1528" 
d="M1272 1953q216 -41 216 -84v-24l-180 -408l-204 -324l-12 -780l-12 -108l24 -72q0 -120 -264 -120q-72 0 -120 72l24 648q0 213 -156 360q-196 328 -384 528q-204 151 -204 204q0 72 204 72q176 0 312 -204q50 -29 240 -312l72 -84h24q146 172 312 612z" />
    <glyph glyph-name="Z" unicode="Z" 
d="M1356 1941q48 -51 48 -96v-12q0 -142 -156 -408q-33 -81 -564 -756q-204 -247 -204 -276q47 -24 132 -24h468l240 36q96 -28 96 -144q0 -228 -180 -228q-420 16 -420 60l-60 -36h-36q-386 0 -612 -60h-24q-84 41 -84 228v24q0 70 204 228q379 427 780 948q96 108 96 156
l-12 12l-84 -12l-252 24l-552 -48l-36 60q0 300 84 300h12l276 12l516 -24z" />
    <glyph glyph-name="bracketleft" unicode="[" horiz-adv-x="976" 
d="M528 1629q240 -7 240 -72v-12q-15 -46 -180 -108l-84 12h-96q-52 0 -60 -192v-408l-12 -156q33 -708 96 -708l324 36h60q120 0 120 -84q0 -122 -744 -168q-180 0 -180 456l-12 180q0 1176 60 1176q180 48 468 48z" />
    <glyph glyph-name="backslash" unicode="\" horiz-adv-x="1180" 
d="M228 1473h36q103 0 180 -288q524 -935 612 -1056q84 -132 84 -168v-24q-49 -84 -144 -84h-144q-101 0 -132 192l-684 1224l-36 96q0 69 228 108z" />
    <glyph glyph-name="bracketright" unicode="]" horiz-adv-x="928" 
d="M552 1653q277 -14 324 -108q-36 -418 -36 -984q12 -389 48 -672q0 -88 -216 -120l-276 12l-264 -12q-60 47 -60 96v24q0 54 300 72l120 -12l24 36l-12 12l-12 528l24 924l-36 24h-12l-408 -48h-24l-36 36v120q0 72 552 72z" />
    <glyph glyph-name="asciicircum" unicode="^" horiz-adv-x="1204" 
d="M312 1077q148 -17 300 -192h12q299 132 348 132q192 0 192 -156q0 -158 -324 -756q-63 -192 -168 -192q-54 -48 -108 -48q-170 0 -288 252q-276 298 -276 684q0 276 312 276zM312 801v-24q0 -268 264 -540h12q288 403 288 540h-36q-98 -60 -204 -228q-86 -60 -132 -60
q-106 0 -144 288l-36 24h-12z" />
    <glyph glyph-name="a" unicode="a" horiz-adv-x="1288" 
d="M636 1269q102 -16 216 -96q228 0 228 -108v-84q0 -338 168 -1008q0 -66 -240 -108q-156 0 -156 240l-24 108h-12q-125 -180 -180 -216q0 -56 -300 -108q-243 0 -324 372l-12 96v96q0 430 336 744q93 72 300 72zM348 417q29 -216 72 -216q89 0 252 696v24l-108 108
q-216 -165 -216 -612z" />
    <glyph glyph-name="b" unicode="b" horiz-adv-x="1156" 
d="M132 1941q288 0 288 -96q-60 -391 -60 -648q0 -216 36 -216q196 84 300 84q420 0 420 -204v-48q-16 -227 -300 -576q-299 -336 -336 -336l-192 -48q-134 0 -192 492q-96 597 -96 924q30 672 132 672zM432 585v-12q21 -276 60 -276q54 0 240 312q72 150 72 264l-36 24h-12
q-109 -13 -276 -192z" />
    <glyph glyph-name="c" unicode="c" horiz-adv-x="1120" 
d="M468 1221q324 -43 324 -192v-72q-21 -120 -192 -120h-12q-49 0 -132 84q-96 -164 -96 -408q0 -253 96 -336h36q111 86 252 360l144 24q192 -15 192 -84l-264 -372q-206 -156 -432 -156q-323 0 -384 468v144q96 552 192 552q74 108 276 108z" />
    <glyph glyph-name="d" unicode="d" horiz-adv-x="1228" 
d="M852 1821q216 -32 216 -108v-48l-12 -144q48 -461 72 -1188l60 -444q-29 -38 -228 -72q-156 0 -156 156q0 120 -36 120q-201 -140 -432 -156q-336 54 -336 492v36q0 399 360 636q123 60 216 60h84l60 12l-12 360v12q0 276 96 276h48zM348 465v-60q36 -204 72 -204h12
q267 336 300 336q24 0 24 48l-12 324q-86 60 -132 60q-264 -182 -264 -504z" />
    <glyph glyph-name="e" unicode="e" horiz-adv-x="1180" 
d="M588 1245q293 0 492 -300l60 -204q-65 -108 -372 -108q-100 -32 -384 -60l-12 -60q0 -140 192 -300h24q31 1 168 168l96 24h96q132 0 132 -84q-110 -173 -348 -264q-72 -48 -216 -48h-60q-223 0 -396 336q-60 168 -60 288q0 422 396 576q49 24 192 36zM384 801v-12
l60 -12q300 0 300 48v36q0 126 -180 192q-180 -106 -180 -252z" />
    <glyph glyph-name="f" unicode="f" horiz-adv-x="1240" 
d="M540 1809h108q365 0 516 -324v-96q0 -44 -180 -60h-24q-99 0 -168 204q-91 96 -144 96q-93 0 -120 -276v-276q0 -132 48 -132q131 0 396 48q174 0 228 -96q0 -85 -192 -120l-168 12q-276 0 -276 -72l96 -684v-36q-91 -72 -228 -72q-156 0 -156 204q-62 540 -84 540
q-122 0 -192 108v36q0 36 168 72l12 12v12l-12 360q0 453 252 516z" />
    <glyph glyph-name="g" unicode="g" horiz-adv-x="1122" 
d="M674 1077l144 -24l48 12q177 -36 216 -72q-30 -1380 -84 -1380q0 -198 -228 -444q-149 -96 -408 -132q-218 44 -312 132l-180 204l-72 144q0 91 288 144q72 0 132 -216q176 -216 276 -216q177 0 216 852l-12 12h-24q-70 -60 -300 -108q-254 0 -348 468v120q0 169 144 348
q219 156 504 156zM374 525q0 -148 84 -240q144 85 240 456v120q0 36 -96 48q-228 -100 -228 -384z" />
    <glyph glyph-name="h" unicode="h" horiz-adv-x="1180" 
d="M204 1821q180 -8 180 -84l-36 -264l12 -540l12 -12h12q186 192 372 192q300 -26 300 -252l84 -804q0 -84 -264 -120q-132 0 -132 528q0 348 -48 348h-12q-288 -284 -288 -432l72 -360v-12q0 -42 -252 -96q-156 0 -156 336q-33 0 -60 660l12 96l-12 312q0 504 84 504h120z
" />
    <glyph glyph-name="i" unicode="i" horiz-adv-x="520" 
d="M192 1629h12q156 0 204 -72v-36q-62 -96 -252 -96q-63 0 -120 84v60q18 60 156 60zM168 1029q216 0 216 -156l96 -828q0 -72 -276 -108q-108 45 -108 120v60q0 311 -96 852q64 60 168 60z" />
    <glyph glyph-name="j" unicode="j" horiz-adv-x="578" 
d="M166 1485q300 -27 300 -84v-24q0 -49 -240 -108q-132 51 -132 144q0 31 72 72zM238 981h24q180 0 240 -84v-180l36 -720q-48 -470 -156 -624q-166 -204 -456 -204h-12q-131 0 -360 216q-45 0 -108 108q31 108 264 120q72 0 264 -204l12 -12h72q132 250 132 540v204
l-60 768q30 72 108 72z" />
    <glyph glyph-name="k" unicode="k" horiz-adv-x="1144" 
d="M108 1773q190 0 264 -72l-12 -300v-480l24 -24h12q71 20 384 312l48 12h48q216 -25 216 -108v-12q-365 -297 -612 -420l-12 -36q30 -103 420 -312q216 -98 216 -132v-36q-60 -84 -180 -84h-72q-38 0 -300 180l-120 48l-12 -12h-12l36 -324q0 -87 -300 -96q-96 0 -96 480
l-48 804l12 48l-12 84q8 468 48 468z" />
    <glyph glyph-name="l" unicode="l" horiz-adv-x="544" 
d="M84 1857q276 0 276 -132v-12q0 -651 144 -1728q0 -62 -216 -96h-48q-120 0 -120 228q-84 829 -120 1476q16 264 84 264z" />
    <glyph glyph-name="m" unicode="m" horiz-adv-x="1564" 
d="M72 1305h48q240 0 240 -120l-12 -204l12 -12h12q171 72 252 72q161 0 276 -156h12q191 216 324 216q264 -33 264 -216l24 -768q-58 -60 -216 -60h-48q-108 0 -108 96l24 156v396l-24 24q-204 -180 -204 -300l24 -348q0 -78 -264 -84q-108 16 -108 108v468q0 192 -36 192
q-204 -184 -204 -288l48 -396q0 -96 -240 -96q-132 0 -132 252q0 204 -36 204l12 96l-12 384q0 384 72 384z" />
    <glyph glyph-name="n" unicode="n" horiz-adv-x="1096" 
d="M708 1161h12q217 0 276 -132q41 -19 60 -384l-12 -468v-12q0 -53 -228 -60q-132 53 -132 120q36 227 36 588h-36q-27 -3 -288 -312l-12 -48l24 -372q-29 -84 -240 -84q-120 32 -120 120q0 246 -36 372l12 48l-24 372l12 204l60 36q288 0 288 -180l24 -48q266 240 324 240
z" />
    <glyph glyph-name="o" unicode="o" horiz-adv-x="1084" 
d="M360 1326q147 0 204 -96q324 0 456 -384l24 -144q0 -528 -300 -708l-300 -48q-240 0 -396 360q-48 242 -48 348q0 327 216 648zM348 726q0 -438 192 -564h12q62 0 132 288l24 144v132q0 152 -192 324h-48q-73 -24 -120 -324z" />
    <glyph glyph-name="p" unicode="p" horiz-adv-x="1156" 
d="M1044 654q-135 -279 -552 -528l132 -624q0 -42 -264 -72q-120 0 -120 204q-120 573 -168 1212l-72 84v12l72 156q0 96 180 96h276q576 -42 576 -288v-48h12l-63 -213zM432 894l12 -408l12 -60h36q288 282 288 480q0 132 -180 132h-120q-39 0 -48 -144z" />
    <glyph glyph-name="q" unicode="q" horiz-adv-x="1147" 
d="M591 1278q408 -15 408 -168v-12q-48 -174 -48 -576q0 -201 72 -624l-12 -48l96 -492v-12q0 -57 -240 -84h-60q-84 30 -84 168q-63 678 -96 708l-12 12h-12l-168 -24h-96q-276 0 -324 432v72l-15 15l63 213q306 420 528 420zM363 582v-96q24 -156 60 -156h12
q168 141 168 264v60l12 360h-36q-216 -195 -216 -432z" />
    <glyph glyph-name="r" unicode="r" horiz-adv-x="1144" 
d="M180 1278q204 0 204 -192l36 -12q338 204 432 204h120q116 0 132 -108q0 -48 -252 -84q-282 -176 -372 -444v-72q48 -252 96 -372q0 -75 -252 -108q-156 0 -156 336q-36 80 -168 780q0 48 180 72z" />
    <glyph glyph-name="s" unicode="s" horiz-adv-x="1132" 
d="M456 1302h60q365 0 468 -276q-28 -144 -204 -144q-76 0 -132 180l-48 36q-139 0 -252 -336v-48q0 -80 132 -108h48q484 0 564 -156v-36q0 -152 -180 -300q-242 -156 -456 -156h-12q-228 54 -228 132q35 84 108 84h36q114 0 192 -36q128 0 240 276v12l-72 24h-180
l-168 -12q-372 67 -372 300v48q0 207 336 480q62 36 120 36z" />
    <glyph glyph-name="t" unicode="t" horiz-adv-x="1288" 
d="M444 1794q264 -18 264 -84v-360l24 -108h72l168 36h12q264 0 264 -120q0 -84 -492 -84l-36 -60q96 -888 144 -1056v-12q0 -74 -252 -84q-120 0 -120 204l-108 936h-12l-216 -36h-60q-96 49 -96 120q0 60 348 108l24 36l-12 312l12 228z" />
    <glyph glyph-name="u" unicode="u" horiz-adv-x="1156" 
d="M108 1350q300 -21 300 -120l-72 -312l12 -60l-12 -84q63 -372 108 -372h24q120 186 240 612q12 216 60 216h24q252 -24 252 -108q0 -789 72 -1056q-63 -48 -264 -48q-96 0 -108 228l-12 12h-12q-122 -144 -384 -144q-231 0 -336 648v216q40 372 108 372z" />
    <glyph glyph-name="v" unicode="v" horiz-adv-x="1180" 
d="M120 1374q252 0 252 -84q148 -544 264 -684q21 0 144 720l120 48q240 -34 240 -72q-120 -264 -120 -504q-84 -308 -132 -684q-40 -33 -252 -72q-144 0 -360 516q-204 488 -276 720v36q27 60 120 60z" />
    <glyph glyph-name="w" unicode="w" horiz-adv-x="1540" 
d="M96 1266q288 0 288 -96q24 -255 72 -408h24l24 24v48q0 288 72 288l108 24q216 0 216 -120q93 -229 192 -360q24 28 48 192l-12 12l12 84v216q0 30 108 60q252 0 252 -84v-12l-48 -108l12 -36q0 -208 -72 -540q-31 -312 -120 -312l-168 -48q-129 0 -312 420h-36
q-76 -444 -120 -444l-216 -48q-119 0 -168 288q-156 429 -252 876v12q16 40 96 72z" />
    <glyph glyph-name="x" unicode="x" horiz-adv-x="1000" 
d="M60 1374q336 0 336 -192q29 -4 72 -156h24l180 192h48q192 0 192 -108q-60 -132 -240 -384v-24q0 -61 252 -420l36 -72q0 -77 -228 -96q-114 44 -168 216q-16 50 -60 72h-12q-22 0 -96 -192l-240 -48q-54 21 -96 84v48l228 456q0 43 -288 528v36z" />
    <glyph glyph-name="y" unicode="y" horiz-adv-x="1312" 
d="M360 1254q264 -19 264 -72v-12l-60 -288q21 -528 108 -528q85 57 156 324l120 492l48 24q276 0 276 -144l-12 -36l12 -36l-12 -168v-84l-12 -48l24 -96l-12 -156l12 -120q-39 -300 -72 -336l12 -12v-12q-64 -263 -120 -396q-22 0 -144 -144q-142 -132 -468 -132
q-189 56 -264 156q-216 241 -216 288v12q0 53 168 84h144q38 0 108 -204q119 -152 216 -180q134 0 276 432l24 276l-12 12h-24q-141 -84 -276 -84q-302 0 -396 576l-12 240q32 372 132 372h12z" />
    <glyph glyph-name="z" unicode="z" horiz-adv-x="1396" 
d="M804 1314q252 -30 252 -96v-36q-147 -243 -336 -456q0 -30 -240 -336v-24q0 -36 276 -36h204l180 24q216 0 216 -96q0 -52 -168 -96l-180 12l-288 -12l-144 12l-396 -48h-48q-108 16 -108 108q0 31 312 420q272 368 288 456v12l-60 12h-12l-420 -108q-132 27 -132 132
q0 98 660 144v-12z" />
    <glyph glyph-name="braceleft" unicode="{" horiz-adv-x="1096" 
d="M552 1665q480 -57 480 -264q-27 -60 -120 -60h-84q-53 0 -168 132h-60q-124 0 -252 -252l-12 -72q0 -121 252 -156q120 -43 120 -108l-96 -144q276 -103 276 -144v-24q0 -35 -228 -384q-48 -120 -48 -204l12 -12h24q124 144 144 144h72q171 0 192 -120
q-109 -252 -420 -252h-48q-300 48 -300 276v60q0 117 204 468v12q0 24 -36 24l-264 -24h-36q-138 0 -156 120v12q2 20 252 144l12 12v48q-121 0 -264 216v48q133 432 240 432q0 54 312 72z" />
    <glyph glyph-name="bar" unicode="|" horiz-adv-x="436" 
d="M108 1629h84q204 -7 204 -72l-12 -360v-1104l-12 -72l12 -60v-36q0 -109 -276 -132q-45 0 -108 84q24 277 24 756v948q20 48 84 48z" />
    <glyph glyph-name="braceright" unicode="}" horiz-adv-x="1096" 
d="M468 1689q300 -48 300 -276v-60q0 -115 -204 -468v-12q0 -24 36 -24l312 24q144 -23 144 -120v-12q-2 -20 -252 -144l-12 -12v-48q264 -98 264 -264q-100 -504 -504 -504h-36q-231 24 -384 96q-103 92 -108 156q30 72 108 72h84q64 0 180 -132h48q150 0 276 276v36
q0 144 -192 144q-180 65 -180 132l96 120v12q-15 24 -252 120l-24 36v24q0 33 228 384q48 89 48 204l-12 12h-24q-124 -144 -144 -144h-72q-192 36 -192 96v24q98 252 468 252z" />
    <glyph glyph-name="degree" unicode="&#xb0;" horiz-adv-x="712" 
d="M240 1494q327 0 408 -252l24 -108q0 -250 -324 -336h-60q-231 0 -288 360q37 336 240 336zM240 1134q40 -144 96 -144q108 41 108 120v36q0 139 -120 180q-69 0 -84 -192z" />
    <glyph glyph-name="quotedblleft" unicode="&#x201c;" horiz-adv-x="808" 
d="M264 1341h24q53 0 96 -48l168 24h72q120 0 120 -384q17 0 24 -132q-161 -108 -276 -108q-108 54 -108 108h-24q-102 -78 -216 -108q-88 0 -144 84v120l12 132l-12 12v12l12 60l-12 144q0 84 264 84z" />
    <glyph glyph-name="quotedblright" unicode="&#x201d;" horiz-adv-x="808" 
d="M264 1341h24q53 0 96 -48l168 24h72q120 0 120 -384q17 0 24 -132q-161 -108 -276 -108q-108 54 -108 108h-24q-102 -78 -216 -108q-88 0 -144 84v120l12 132l-12 12v12l12 60l-12 144q0 84 264 84z" />
    <glyph glyph-name="quoteleft" unicode="&#x2018;" horiz-adv-x="412" 
d="M320 801q-102 -78 -216 -108q-88 0 -144 84v120l12 132l-12 12v12l12 60l-12 144q0 84 264 84h24q53 0 96 -48l-13 -492h-11z" />
    <glyph glyph-name="quoteright" unicode="&#x2019;" horiz-adv-x="412" 
d="M320 801q-102 -78 -216 -108q-88 0 -144 84v120l12 132l-12 12v12l12 60l-12 144q0 84 264 84h24q53 0 96 -48l-13 -492h-11z" />
  </font>
</defs>
</svg>
